<?xml version="1.0" encoding="UTF-8" standalone="no"?>
<!-- Created with Inkscape (http://www.inkscape.org/) -->

<svg
   width="512"
   height="512"
   viewBox="0 0 135.46667 135.46667"
   version="1.1"
   id="svg5"
   xml:space="preserve"
   inkscape:version="1.2.1 (9c6d41e, 2022-07-14)"
   sodipodi:docname="logo-Square.svg"
   xmlns:inkscape="http://www.inkscape.org/namespaces/inkscape"
   xmlns:sodipodi="http://sodipodi.sourceforge.net/DTD/sodipodi-0.dtd"
   xmlns="http://www.w3.org/2000/svg"
   xmlns:svg="http://www.w3.org/2000/svg"><sodipodi:namedview
     id="namedview7"
     pagecolor="#ffffff"
     bordercolor="#000000"
     borderopacity="0.25"
     inkscape:showpageshadow="2"
     inkscape:pageopacity="0.0"
     inkscape:pagecheckerboard="0"
     inkscape:deskcolor="#d1d1d1"
     inkscape:document-units="mm"
     showgrid="false"
     inkscape:zoom="0.25724975"
     inkscape:cx="139.94183"
     inkscape:cy="180.75819"
     inkscape:window-width="1920"
     inkscape:window-height="1027"
     inkscape:window-x="0"
     inkscape:window-y="25"
     inkscape:window-maximized="0"
     inkscape:current-layer="layer1" /><defs
     id="defs2" /><g
     inkscape:label="Calque 1"
     inkscape:groupmode="layer"
     id="layer1"><rect
       style="fill:#ffffff;fill-opacity:1;fill-rule:evenodd;stroke-width:2.89309;stroke-linecap:round"
       id="rect2938"
       width="135.46666"
       height="135.46666"
       x="3.5603841e-06"
       y="3.5603841e-06"
       ry="0" /><g
       id="g302"
       transform="matrix(0.79959262,0,0,0.79959262,-13.072449,-57.121459)"
       style="fill:#24986a;fill-opacity:1"><path
         style="fill:#24986a;fill-opacity:1;stroke-width:0.340501"
         d="m 31.424195,191.56098 v -31.15589 h 7.66128 7.661282 v 23.83511 23.83509 h 53.609653 53.60966 l 0.53006,-0.75676 c 0.46709,-0.66687 0.53006,-3.4985 0.53006,-23.8351 v -23.07834 h 7.83153 7.83153 v 31.15589 31.15587 H 101.05672 31.424195 Z m 0,-73.54912 V 89.579161 l 69.547405,0.08594 69.54741,0.08594 0.0871,28.346769 0.0871,28.34673 h -7.8335 -7.83348 l -0.0441,-7.23566 c -0.0243,-3.97961 -0.0176,-13.70943 0.0148,-21.62183 l 0.0589,-14.3862 H 100.9013 46.746731 v 21.62186 21.62183 h -7.661282 -7.66128 z"
         id="path304"
         sodipodi:nodetypes="ccccccccsscccccccccccccccccscccccccc" /><g
         id="g2856"
         transform="matrix(1.592192,0,0,1.592192,-323.52516,24.629136)"
         style="fill:#000000;fill-opacity:1"><path
           style="fill:#000000;fill-opacity:1;stroke-width:0.330898"
           d="m 246.81238,82.602395 v -24.98278 h 14.8904 14.89039 v 4.96347 4.96346 h 4.96347 4.96346 v 15.05585 15.05584 h -4.96346 -4.96347 v 4.963475 4.96346 h -14.89039 -14.8904 z m 29.119,0 v -14.72495 h -9.59604 -9.59603 v 14.72495 14.72494 h 9.59603 9.59604 z"
           id="path2858" /></g></g></g></svg>
