<?xml version="1.0" encoding="UTF-8"?>
<svg xmlns="http://www.w3.org/2000/svg" viewBox="0 0 1400 1310" width="1400" height="1310" font-family="Inter, 'Helvetica Neue', Arial, sans-serif">
<rect width="1400" height="1310" fill="#FFFFFF"/>
<rect x="40" y="46" width="5" height="46" rx="2.5" fill="#16A34A"/>
<text x="60" y="70" font-size="27" font-weight="700" fill="#0F172A">Les cinq couches numériques de la filière forêt-bois</text>
<text x="60" y="94" font-size="14" fill="#64748B">53 outils déployés, cartographie DataWood Consortium, extraction du 24 juin 2026</text>
<rect x="40" y="132" width="1320" height="152" rx="12" fill="#F8FAFC" stroke="#E2E8F0"/>
<path d="M40 144 a12 12 0 0 1 12 -12 h0 v152 h0 a12 12 0 0 1 -12 -12 Z" fill="#14532D"/>
<rect x="40" y="132" width="7" height="152" fill="#14532D"/>
<text x="70" y="176" font-size="26" font-weight="800" fill="#14532D" opacity="0.32">01</text>
<text x="70" y="208" font-size="16.5" font-weight="700" fill="#0F172A">Ressource et milieu</text>
<text x="70" y="230" font-size="11.5" fill="#64748B">État, évolution et disponibilité de la</text>
<text x="70" y="245" font-size="11.5" fill="#64748B">ressource forestière</text>
<rect x="430" y="178" width="262" height="32" rx="16" fill="#FFFFFF" stroke="#CBD5E1" stroke-width="1"/>
<text x="561" y="199" font-size="12.5" font-weight="500" fill="#334155" text-anchor="middle">Observatoire des forêts françaises</text>
<rect x="702" y="178" width="84" height="32" rx="16" fill="#FFFFFF" stroke="#CBD5E1" stroke-width="1"/>
<text x="744" y="199" font-size="12.5" font-weight="500" fill="#334155" text-anchor="middle">CARTOFOB</text>
<rect x="796" y="178" width="91" height="32" rx="16" fill="#FFFFFF" stroke="#CBD5E1" stroke-width="1"/>
<text x="842" y="199" font-size="12.5" font-weight="500" fill="#334155" text-anchor="middle">RENECOFOR</text>
<rect x="897" y="178" width="98" height="32" rx="16" fill="#FFFFFF" stroke="#CBD5E1" stroke-width="1"/>
<text x="946" y="199" font-size="12.5" font-weight="500" fill="#334155" text-anchor="middle">PASSIFOR-2</text>
<rect x="430" y="224" width="112" height="32" rx="16" fill="#FFFFFF" stroke="#CBD5E1" stroke-width="1"/>
<text x="486" y="245" font-size="12.5" font-weight="500" fill="#334155" text-anchor="middle">ClimEssences</text>
<rect x="552" y="224" width="98" height="32" rx="16" fill="#FFFFFF" stroke="#CBD5E1" stroke-width="1"/>
<text x="601" y="245" font-size="12.5" font-weight="500" fill="#334155" text-anchor="middle">BioClimSol</text>
<rect x="660" y="224" width="50" height="32" rx="16" fill="#FFFFFF" stroke="#CBD5E1" stroke-width="1"/>
<text x="685" y="245" font-size="12.5" font-weight="500" fill="#334155" text-anchor="middle">IBP</text>
<rect x="720" y="224" width="64" height="32" rx="16" fill="#FFFFFF" stroke="#CBD5E1" stroke-width="1"/>
<text x="752" y="245" font-size="12.5" font-weight="500" fill="#334155" text-anchor="middle">ARCHI</text>
<rect x="794" y="224" width="57" height="32" rx="16" fill="#FFFFFF" stroke="#CBD5E1" stroke-width="1"/>
<text x="823" y="245" font-size="12.5" font-weight="500" fill="#334155" text-anchor="middle">ALDO</text>
<text x="1334" y="176" font-size="10.5" font-weight="700" fill="#94A3B8" text-anchor="end" letter-spacing="1.1">PORTEURS</text>
<text x="1334" y="200" font-size="12" fill="#475569" text-anchor="end">IGN, ONF, CNPF, OFB</text>
<text x="1334" y="219" font-size="12" fill="#475569" text-anchor="end">INRAE, MNHN, GIP ECOFOR</text>
<text x="1334" y="238" font-size="12" fill="#475569" text-anchor="end">ADEME, France Bois Forêt</text>
<rect x="40" y="298" width="1320" height="152" rx="12" fill="#F8FAFC" stroke="#E2E8F0"/>
<path d="M40 310 a12 12 0 0 1 12 -12 h0 v152 h0 a12 12 0 0 1 -12 -12 Z" fill="#166534"/>
<rect x="40" y="298" width="7" height="152" fill="#166534"/>
<text x="70" y="342" font-size="26" font-weight="800" fill="#166534" opacity="0.32">02</text>
<text x="70" y="374" font-size="16.5" font-weight="700" fill="#0F172A">Flux et approvisionnement</text>
<text x="70" y="396" font-size="11.5" fill="#64748B">Commandes, transports, chantiers,</text>
<text x="70" y="411" font-size="11.5" fill="#64748B">déclarations réglementaires</text>
<rect x="430" y="344" width="78" height="32" rx="16" fill="#DCFCE7" stroke="#16A34A" stroke-width="1.4"/>
<text x="469" y="365" font-size="12.5" font-weight="600" fill="#14532D" text-anchor="middle">eMOBOIS</text>
<rect x="518" y="344" width="91" height="32" rx="16" fill="#DCFCE7" stroke="#16A34A" stroke-width="1.4"/>
<text x="563" y="365" font-size="12.5" font-weight="600" fill="#14532D" text-anchor="middle">FORETDATA</text>
<rect x="619" y="344" width="241" height="32" rx="16" fill="#FFFFFF" stroke="#CBD5E1" stroke-width="1"/>
<text x="740" y="365" font-size="12.5" font-weight="500" fill="#334155" text-anchor="middle">Chaîne Numérique d'Informations</text>
<rect x="870" y="344" width="84" height="32" rx="16" fill="#FFFFFF" stroke="#CBD5E1" stroke-width="1"/>
<text x="912" y="365" font-size="12.5" font-weight="500" fill="#334155" text-anchor="middle">ExploTIC</text>
<rect x="430" y="390" width="153" height="32" rx="16" fill="#FFFFFF" stroke="#CBD5E1" stroke-width="1"/>
<text x="506" y="411" font-size="12.5" font-weight="500" fill="#334155" text-anchor="middle">Ventes de bois ONF</text>
<text x="1334" y="342" font-size="10.5" font-weight="700" fill="#94A3B8" text-anchor="end" letter-spacing="1.1">PORTEURS</text>
<text x="1334" y="366" font-size="12" fill="#475569" text-anchor="end">FCBA, GIP ATGeRi, ONF</text>
<text x="1334" y="385" font-size="12" fill="#475569" text-anchor="end">Fibois France, Fibois LdG</text>
<text x="1334" y="404" font-size="12" fill="#475569" text-anchor="end">FNEDT, UCFF, France Bois Régions</text>
<rect x="40" y="464" width="1320" height="152" rx="12" fill="#F8FAFC" stroke="#E2E8F0"/>
<path d="M40 476 a12 12 0 0 1 12 -12 h0 v152 h0 a12 12 0 0 1 -12 -12 Z" fill="#15803D"/>
<rect x="40" y="464" width="7" height="152" fill="#15803D"/>
<text x="70" y="508" font-size="26" font-weight="800" fill="#15803D" opacity="0.32">03</text>
<text x="70" y="540" font-size="16.5" font-weight="700" fill="#0F172A">Produit et construction</text>
<text x="70" y="562" font-size="11.5" fill="#64748B">Du matériau au produit prescriptible et</text>
<text x="70" y="577" font-size="11.5" fill="#64748B">déclarable</text>
<rect x="430" y="510" width="64" height="32" rx="16" fill="#DCFCE7" stroke="#16A34A" stroke-width="1.4"/>
<text x="462" y="531" font-size="12.5" font-weight="600" fill="#14532D" text-anchor="middle">INIES</text>
<rect x="504" y="510" width="214" height="32" rx="16" fill="#FFFFFF" stroke="#CBD5E1" stroke-width="1"/>
<text x="611" y="531" font-size="12.5" font-weight="500" fill="#334155" text-anchor="middle">Catalogue Bois Construction</text>
<rect x="728" y="510" width="78" height="32" rx="16" fill="#FFFFFF" stroke="#CBD5E1" stroke-width="1"/>
<text x="767" y="531" font-size="12.5" font-weight="500" fill="#334155" text-anchor="middle">DE-Bois</text>
<rect x="816" y="510" width="132" height="32" rx="16" fill="#FFFFFF" stroke="#CBD5E1" stroke-width="1"/>
<text x="882" y="531" font-size="12.5" font-weight="500" fill="#334155" text-anchor="middle">DE-BoisDeFrance</text>
<rect x="958" y="510" width="84" height="32" rx="16" fill="#FFFFFF" stroke="#CBD5E1" stroke-width="1"/>
<text x="1000" y="531" font-size="12.5" font-weight="500" fill="#334155" text-anchor="middle">BIM 2023</text>
<rect x="430" y="556" width="112" height="32" rx="16" fill="#FFFFFF" stroke="#CBD5E1" stroke-width="1"/>
<text x="486" y="577" font-size="12.5" font-weight="500" fill="#334155" text-anchor="middle">BIM Bois Box</text>
<rect x="552" y="556" width="84" height="32" rx="16" fill="#FFFFFF" stroke="#CBD5E1" stroke-width="1"/>
<text x="594" y="577" font-size="12.5" font-weight="500" fill="#334155" text-anchor="middle">RESOBOIS</text>
<rect x="646" y="556" width="91" height="32" rx="16" fill="#FFFFFF" stroke="#CBD5E1" stroke-width="1"/>
<text x="692" y="577" font-size="12.5" font-weight="500" fill="#334155" text-anchor="middle">BoisLocal</text>
<rect x="748" y="556" width="71" height="32" rx="16" fill="#FFFFFF" stroke="#CBD5E1" stroke-width="1"/>
<text x="783" y="577" font-size="12.5" font-weight="500" fill="#334155" text-anchor="middle">RE2020</text>
<text x="1334" y="508" font-size="10.5" font-weight="700" fill="#94A3B8" text-anchor="end" letter-spacing="1.1">PORTEURS</text>
<text x="1334" y="532" font-size="12" fill="#475569" text-anchor="end">FCBA, CSTB, CODIFAB</text>
<text x="1334" y="551" font-size="12" fill="#475569" text-anchor="end">EnerBIM, Axiocode, FNB</text>
<text x="1334" y="570" font-size="12" fill="#475569" text-anchor="end">Bois de France, ministères</text>
<rect x="40" y="630" width="1320" height="152" rx="12" fill="#F8FAFC" stroke="#E2E8F0"/>
<path d="M40 642 a12 12 0 0 1 12 -12 h0 v152 h0 a12 12 0 0 1 -12 -12 Z" fill="#16A34A"/>
<rect x="40" y="630" width="7" height="152" fill="#16A34A"/>
<text x="70" y="674" font-size="26" font-weight="800" fill="#16A34A" opacity="0.32">04</text>
<text x="70" y="706" font-size="16.5" font-weight="700" fill="#0F172A">Certification et conformité</text>
<text x="70" y="728" font-size="11.5" fill="#64748B">Preuve d'origine, veille réglementaire,</text>
<text x="70" y="743" font-size="11.5" fill="#64748B">contributions</text>
<rect x="430" y="676" width="234" height="32" rx="16" fill="#FFFFFF" stroke="#CBD5E1" stroke-width="1"/>
<text x="547" y="697" font-size="12.5" font-weight="500" fill="#334155" text-anchor="middle">BD entreprises certifiées PEFC</text>
<rect x="674" y="676" width="180" height="32" rx="16" fill="#FFFFFF" stroke="#CBD5E1" stroke-width="1"/>
<text x="764" y="697" font-size="12.5" font-weight="500" fill="#334155" text-anchor="middle">Showroom produits PEFC</text>
<rect x="864" y="676" width="221" height="32" rx="16" fill="#FFFFFF" stroke="#CBD5E1" stroke-width="1"/>
<text x="975" y="697" font-size="12.5" font-weight="500" fill="#334155" text-anchor="middle">Centre de documentation PEFC</text>
<rect x="430" y="722" width="91" height="32" rx="16" fill="#FFFFFF" stroke="#CBD5E1" stroke-width="1"/>
<text x="476" y="743" font-size="12.5" font-weight="500" fill="#334155" text-anchor="middle">Reglobois</text>
<rect x="531" y="722" width="159" height="32" rx="16" fill="#FFFFFF" stroke="#CBD5E1" stroke-width="1"/>
<text x="611" y="743" font-size="12.5" font-weight="500" fill="#334155" text-anchor="middle">Télédéclaration CVO</text>
<text x="1334" y="674" font-size="10.5" font-weight="700" fill="#94A3B8" text-anchor="end" letter-spacing="1.1">PORTEURS</text>
<text x="1334" y="698" font-size="12" fill="#475569" text-anchor="end">PEFC France</text>
<text x="1334" y="717" font-size="12" fill="#475569" text-anchor="end">FNB</text>
<text x="1334" y="736" font-size="12" fill="#475569" text-anchor="end">France Bois Forêt</text>
<rect x="40" y="796" width="1320" height="152" rx="12" fill="#F8FAFC" stroke="#E2E8F0"/>
<path d="M40 808 a12 12 0 0 1 12 -12 h0 v152 h0 a12 12 0 0 1 -12 -12 Z" fill="#22C55E"/>
<rect x="40" y="796" width="7" height="152" fill="#22C55E"/>
<text x="70" y="840" font-size="26" font-weight="800" fill="#22C55E" opacity="0.32">05</text>
<text x="70" y="872" font-size="16.5" font-weight="700" fill="#0F172A">Économie et connaissance</text>
<text x="70" y="894" font-size="11.5" fill="#64748B">Indicateurs de filière, ressources</text>
<text x="70" y="909" font-size="11.5" fill="#64748B">techniques, métiers</text>
<rect x="430" y="842" width="180" height="32" rx="16" fill="#FFFFFF" stroke="#CBD5E1" stroke-width="1"/>
<text x="520" y="863" font-size="12.5" font-weight="500" fill="#334155" text-anchor="middle">VEM Filière Forêt-Bois</text>
<rect x="620" y="842" width="214" height="32" rx="16" fill="#FFFFFF" stroke="#CBD5E1" stroke-width="1"/>
<text x="727" y="863" font-size="12.5" font-weight="500" fill="#334155" text-anchor="middle">Observatoire économique FBF</text>
<rect x="844" y="842" width="105" height="32" rx="16" fill="#FFFFFF" stroke="#CBD5E1" stroke-width="1"/>
<text x="896" y="863" font-size="12.5" font-weight="500" fill="#334155" text-anchor="middle">Biblio Bois</text>
<rect x="959" y="842" width="139" height="32" rx="16" fill="#FFFFFF" stroke="#CBD5E1" stroke-width="1"/>
<text x="1028" y="863" font-size="12.5" font-weight="500" fill="#334155" text-anchor="middle">Médiathèque Bois</text>
<rect x="430" y="888" width="153" height="32" rx="16" fill="#FFFFFF" stroke="#CBD5E1" stroke-width="1"/>
<text x="506" y="909" font-size="12.5" font-weight="500" fill="#334155" text-anchor="middle">Métiers Forêt Bois</text>
<text x="1334" y="840" font-size="10.5" font-weight="700" fill="#94A3B8" text-anchor="end" letter-spacing="1.1">PORTEURS</text>
<text x="1334" y="864" font-size="12" fill="#475569" text-anchor="end">France Bois Forêt, CODIFAB</text>
<text x="1334" y="883" font-size="12" fill="#475569" text-anchor="end">Fibois France, FCBA</text>
<text x="1334" y="902" font-size="12" fill="#475569" text-anchor="end">TerriFlux</text>
<rect x="40" y="994" width="1320" height="250" rx="12" fill="#FFFFFF" stroke="#E2E8F0"/>
<rect x="40" y="994" width="7" height="250" fill="#334155"/>
<text x="70" y="1032" font-size="16.5" font-weight="700" fill="#0F172A">Les six seuls liens documentés entre outils</text>
<text x="70" y="1054" font-size="12.5" fill="#64748B">Sur 555 relations qualifiées, six relient un outil à un autre outil. Quatre pointent vers la même base.</text>
<defs><marker id="ar" markerWidth="8" markerHeight="8" refX="7" refY="4" orient="auto"><path d="M0 0 L8 4 L0 8 z" fill="#94A3B8"/></marker><marker id="arg" markerWidth="8" markerHeight="8" refX="7" refY="4" orient="auto"><path d="M0 0 L8 4 L0 8 z" fill="#16A34A"/></marker></defs>
<rect x="170" y="1080" width="60" height="24" rx="12" fill="#FFFFFF" stroke="#CBD5E1"/>
<text x="200" y="1096" font-size="11.5" fill="#334155" text-anchor="middle">RE2020</text>
<path d="M236 1092 C 300 1092, 330 1161, 406 1161" fill="none" stroke="#94A3B8" stroke-width="1.3" stroke-dasharray="4 3" marker-end="url(#ar)"/>
<rect x="120" y="1110" width="160" height="24" rx="12" fill="#FFFFFF" stroke="#CBD5E1"/>
<text x="200" y="1126" font-size="11.5" fill="#334155" text-anchor="middle">VEM Filière Forêt-Bois</text>
<path d="M286 1122 C 350 1122, 330 1161, 406 1161" fill="none" stroke="#94A3B8" stroke-width="1.3" stroke-dasharray="4 3" marker-end="url(#ar)"/>
<rect x="104" y="1140" width="191" height="24" rx="12" fill="#FFFFFF" stroke="#CBD5E1"/>
<text x="200" y="1156" font-size="11.5" fill="#334155" text-anchor="middle">Catalogue Bois Construction</text>
<path d="M302 1152 C 366 1152, 330 1161, 406 1161" fill="none" stroke="#94A3B8" stroke-width="1.3" stroke-dasharray="4 3" marker-end="url(#ar)"/>
<rect x="155" y="1170" width="91" height="24" rx="12" fill="#FFFFFF" stroke="#CBD5E1"/>
<text x="200" y="1186" font-size="11.5" fill="#334155" text-anchor="middle">Biblio Bois</text>
<path d="M251 1182 C 315 1182, 330 1161, 406 1161" fill="none" stroke="#94A3B8" stroke-width="1.3" stroke-dasharray="4 3" marker-end="url(#ar)"/>
<rect x="415" y="1144" width="110" height="34" rx="17" fill="#DCFCE7" stroke="#16A34A" stroke-width="1.6"/>
<text x="470" y="1166" font-size="12.5" font-weight="700" fill="#14532D" text-anchor="middle">INIES</text>
<text x="470" y="1200" font-size="11.5" fill="#64748B" text-anchor="middle">Base de référence des déclarations</text>
<text x="470" y="1216" font-size="11.5" fill="#64748B" text-anchor="middle">environnementales, opérée par le CSTB</text>
<text x="200" y="1070" font-size="10.5" font-weight="700" fill="#94A3B8" text-anchor="middle" letter-spacing="1">S'APPUIENT SUR</text>
<line x1="700" y1="1074" x2="700" y2="1218" stroke="#E2E8F0"/>
<text x="880" y="1070" font-size="10.5" font-weight="700" fill="#94A3B8" text-anchor="middle" letter-spacing="1">S'APPUIE SUR</text>
<rect x="755" y="1088" width="250" height="34" rx="17" fill="#FFFFFF" stroke="#CBD5E1" stroke-width="1"/>
<text x="880" y="1110" font-size="12.5" font-weight="500" fill="#334155" text-anchor="middle">Chaîne Numérique d'Informations</text>
<path d="M880 1124 C 880 1150, 790 1144, 790 1170" fill="none" stroke="#16A34A" stroke-width="1.4" stroke-dasharray="4 3" marker-end="url(#arg)"/>
<rect x="730" y="1174" width="120" height="34" rx="17" fill="#DCFCE7" stroke="#16A34A" stroke-width="1.6"/>
<text x="790" y="1196" font-size="12.5" font-weight="700" fill="#14532D" text-anchor="middle">eMOBOIS</text>
<path d="M880 1124 C 880 1150, 970 1144, 970 1170" fill="none" stroke="#16A34A" stroke-width="1.4" stroke-dasharray="4 3" marker-end="url(#arg)"/>
<rect x="910" y="1174" width="120" height="34" rx="17" fill="#DCFCE7" stroke="#16A34A" stroke-width="1.6"/>
<text x="970" y="1196" font-size="12.5" font-weight="700" fill="#14532D" text-anchor="middle">FORETDATA</text>
<text x="880" y="1230" font-size="11.5" fill="#64748B" text-anchor="middle">Seule articulation construite entre outils de la filière</text>
<rect x="1090" y="1080" width="250" height="128" rx="10" fill="#F1F5F9"/>
<text x="1108" y="1108" font-size="13" font-weight="700" fill="#0F172A">Le constat</text>
<text x="1108" y="1132" font-size="12" fill="#475569">53 outils opérationnels.</text>
<text x="1108" y="1151" font-size="12" fill="#475569">6 liens entre eux.</text>
<text x="1108" y="1170" font-size="12" fill="#475569">Chaque couche fonctionne,</text>
<text x="1108" y="1189" font-size="12" fill="#475569">la chaîne ne circule pas.</text>
<rect x="40" y="1268" width="14" height="14" rx="7" fill="#DCFCE7" stroke="#16A34A"/>
<text x="64" y="1279" font-size="11.5" fill="#64748B">Nœud de raccordement identifié</text>
<text x="1360" y="1279" font-size="11.5" fill="#94A3B8" text-anchor="end">DataWood Consortium, cartographie de la filière forêt-bois, juin 2026</text>
</svg>